<svg version="1.1" preserveAspectRatio="none" xmlns="http://www.w3.org/2000/svg" width="500" height="500" viewBox="0 0 500 500"><rect width="100%" height="100%" fill="#FFF1F0" fill-opacity="1"/><svg viewBox="341.5529 349.7555 412.2069 148" width="333" height="119.5613173869724" x="83.5px" y="190.2193px" xmlns="http://www.w3.org/2000/svg" xmlns:xlink="http://www.w3.org/1999/xlink" preserveAspectRatio="none"><defs></defs><style>.companyName {fill:#0D265D;fill-opacity:1;}.icon3-str {stroke:#FBDEDD;stroke-opacity:1;}.shapeStroke-str {stroke:#2E4E92;stroke-opacity:1;}.text {fill:#0D265D;fill-opacity:1;}</style><defs></defs><g opacity="1" transform="rotate(0 362.5529 469.7555)">
<svg width="356.5698" height="28" x="362.5529" y="469.7555" version="1.1" preserveAspectRatio="none" viewBox="4.2 -30.28 389.68 30.6">
  <g transform="matrix(1 0 0 1 0 0)" class="text"><path id="id-6izo4zJp18" d="M23.96-24.52L8.20-24.52L8.20-14.76L22.24-14.76L22.24-11.32L8.20-11.32L8.20 0L4.20 0L4.20-28L23.96-28L23.96-24.52Z M38.64 0.24Q35.48 0.24 32.96-1.16Q30.44-2.56 29.02-5.02Q27.60-7.48 27.60-10.60L27.60-10.60Q27.60-13.72 29.02-16.18Q30.44-18.64 32.96-20.02Q35.48-21.40 38.64-21.40L38.64-21.40Q41.80-21.40 44.30-20.02Q46.80-18.64 48.22-16.18Q49.64-13.72 49.64-10.60L49.64-10.60Q49.64-7.48 48.22-5.02Q46.80-2.56 44.30-1.16Q41.80 0.24 38.64 0.24L38.64 0.24ZM38.64-3.12Q40.68-3.12 42.30-4.06Q43.92-5 44.84-6.70Q45.76-8.40 45.76-10.60L45.76-10.60Q45.76-12.80 44.84-14.50Q43.92-16.20 42.30-17.12Q40.68-18.04 38.64-18.04L38.64-18.04Q36.60-18.04 34.98-17.12Q33.36-16.20 32.42-14.50Q31.48-12.80 31.48-10.60L31.48-10.60Q31.48-8.40 32.42-6.70Q33.36-5 34.98-4.06Q36.60-3.12 38.64-3.12L38.64-3.12Z M65.24 0.24Q62.08 0.24 59.56-1.16Q57.04-2.56 55.62-5.02Q54.20-7.48 54.20-10.60L54.20-10.60Q54.20-13.72 55.62-16.18Q57.04-18.64 59.56-20.02Q62.08-21.40 65.24-21.40L65.24-21.40Q68.40-21.40 70.90-20.02Q73.40-18.64 74.82-16.18Q76.24-13.72 76.24-10.60L76.24-10.60Q76.24-7.48 74.82-5.02Q73.40-2.56 70.90-1.16Q68.40 0.24 65.24 0.24L65.24 0.24ZM65.24-3.12Q67.28-3.12 68.90-4.06Q70.52-5 71.44-6.70Q72.36-8.40 72.36-10.60L72.36-10.60Q72.36-12.80 71.44-14.50Q70.52-16.20 68.90-17.12Q67.28-18.04 65.24-18.04L65.24-18.04Q63.20-18.04 61.58-17.12Q59.96-16.20 59.02-14.50Q58.08-12.80 58.08-10.60L58.08-10.60Q58.08-8.40 59.02-6.70Q59.96-5 61.58-4.06Q63.20-3.12 65.24-3.12L65.24-3.12Z M98.92-29.68L102.76-29.68L102.76 0L99.08 0L99.08-3.36Q97.80-1.60 95.84-0.68Q93.88 0.24 91.52 0.24L91.52 0.24Q88.44 0.24 86.00-1.12Q83.56-2.48 82.18-4.94Q80.80-7.40 80.80-10.60L80.80-10.60Q80.80-13.80 82.18-16.24Q83.56-18.68 86.00-20.04Q88.44-21.40 91.52-21.40L91.52-21.40Q93.80-21.40 95.72-20.54Q97.64-19.68 98.92-18L98.92-18L98.92-29.68ZM91.84-3.12Q93.84-3.12 95.48-4.06Q97.12-5 98.04-6.70Q98.96-8.40 98.96-10.60L98.96-10.60Q98.96-12.80 98.04-14.50Q97.12-16.20 95.48-17.12Q93.84-18.04 91.84-18.04L91.84-18.04Q89.80-18.04 88.18-17.12Q86.56-16.20 85.62-14.50Q84.68-12.80 84.68-10.60L84.68-10.60Q84.68-8.40 85.62-6.70Q86.56-5 88.18-4.06Q89.80-3.12 91.84-3.12L91.84-3.12Z M123.76 0L123.76-28L127.76-28L127.76-3.48L142.92-3.48L142.92 0L123.76 0Z M156.96 0.24Q153.80 0.24 151.28-1.16Q148.76-2.56 147.34-5.02Q145.92-7.48 145.92-10.60L145.92-10.60Q145.92-13.72 147.34-16.18Q148.76-18.64 151.28-20.02Q153.80-21.40 156.96-21.40L156.96-21.40Q160.12-21.40 162.62-20.02Q165.12-18.64 166.54-16.18Q167.96-13.72 167.96-10.60L167.96-10.60Q167.96-7.48 166.54-5.02Q165.12-2.56 162.62-1.16Q160.12 0.24 156.96 0.24L156.96 0.24ZM156.96-3.12Q159-3.12 160.62-4.06Q162.24-5 163.16-6.70Q164.08-8.40 164.08-10.60L164.08-10.60Q164.08-12.80 163.16-14.50Q162.24-16.20 160.62-17.12Q159-18.04 156.96-18.04L156.96-18.04Q154.92-18.04 153.30-17.12Q151.68-16.20 150.74-14.50Q149.80-12.80 149.80-10.60L149.80-10.60Q149.80-8.40 150.74-6.70Q151.68-5 153.30-4.06Q154.92-3.12 156.96-3.12L156.96-3.12Z M188.88-21.20L192.64-21.20L183.36 0L179.44 0L170.16-21.20L174.16-21.20L181.44-4.20L188.88-21.20Z M216.00-10.48Q216.00-10.04 215.92-9.32L215.92-9.32L198.72-9.32Q199.08-6.52 201.18-4.82Q203.28-3.12 206.40-3.12L206.40-3.12Q210.20-3.12 212.52-5.68L212.52-5.68L214.64-3.20Q213.20-1.52 211.06-0.64Q208.92 0.24 206.28 0.24L206.28 0.24Q202.92 0.24 200.32-1.14Q197.72-2.52 196.30-5Q194.88-7.48 194.88-10.60L194.88-10.60Q194.88-13.68 196.26-16.16Q197.64-18.64 200.06-20.02Q202.48-21.40 205.52-21.40L205.52-21.40Q208.56-21.40 210.94-20.02Q213.32-18.64 214.66-16.16Q216.00-13.68 216.00-10.48L216.00-10.48ZM205.52-18.16Q202.76-18.16 200.90-16.48Q199.04-14.80 198.72-12.08L198.72-12.08L212.32-12.08Q212.00-14.76 210.14-16.46Q208.28-18.16 205.52-18.16L205.52-18.16Z M226.20-17.64Q227.20-19.48 229.16-20.44Q231.12-21.40 233.92-21.40L233.92-21.40L233.92-17.68Q233.60-17.72 233.04-17.72L233.04-17.72Q229.92-17.72 228.14-15.86Q226.36-14 226.36-10.56L226.36-10.56L226.36 0L222.52 0L222.52-21.20L226.20-21.20L226.20-17.64Z M246.08 0.24Q243.48 0.24 241.08-0.46Q238.68-1.16 237.32-2.24L237.32-2.24L238.92-5.28Q240.32-4.28 242.32-3.68Q244.32-3.08 246.36-3.08L246.36-3.08Q251.40-3.08 251.40-5.96L251.40-5.96Q251.40-6.92 250.72-7.48Q250.04-8.04 249.02-8.30Q248-8.56 246.12-8.88L246.12-8.88Q243.56-9.28 241.94-9.80Q240.32-10.32 239.16-11.56Q238.00-12.80 238.00-15.04L238.00-15.04Q238.00-17.92 240.40-19.66Q242.80-21.40 246.84-21.40L246.84-21.40Q248.96-21.40 251.08-20.88Q253.20-20.36 254.56-19.48L254.56-19.48L252.92-16.44Q250.32-18.12 246.80-18.12L246.80-18.12Q244.36-18.12 243.08-17.32Q241.80-16.52 241.80-15.20L241.80-15.20Q241.80-14.16 242.52-13.56Q243.24-12.96 244.30-12.68Q245.36-12.40 247.28-12.04L247.28-12.04Q249.84-11.60 251.42-11.10Q253-10.60 254.12-9.40Q255.24-8.20 255.24-6.04L255.24-6.04Q255.24-3.16 252.78-1.46Q250.32 0.24 246.08 0.24L246.08 0.24Z M285.36 0.32Q279.76 0.32 276.64-2.88Q273.52-6.08 273.52-12.08L273.52-12.08L273.52-28L277.52-28L277.52-12.24Q277.52-3.24 285.40-3.24L285.40-3.24Q289.24-3.24 291.28-5.46Q293.32-7.68 293.32-12.24L293.32-12.24L293.32-28L297.20-28L297.20-12.08Q297.20-6.04 294.08-2.86Q290.96 0.32 285.36 0.32L285.36 0.32Z M317.36-21.40Q321.40-21.40 323.78-19.06Q326.16-16.72 326.16-12.20L326.16-12.20L326.16 0L322.32 0L322.32-11.76Q322.32-14.84 320.84-16.40Q319.36-17.96 316.60-17.96L316.60-17.96Q313.48-17.96 311.68-16.14Q309.88-14.32 309.88-10.92L309.88-10.92L309.88 0L306.04 0L306.04-21.20L309.72-21.20L309.72-18Q310.88-19.64 312.86-20.52Q314.84-21.40 317.36-21.40L317.36-21.40Z M334.48 0L334.48-21.20L338.32-21.20L338.32 0L334.48 0ZM336.40-25.28Q335.28-25.28 334.54-26Q333.80-26.72 333.80-27.76L333.80-27.76Q333.80-28.80 334.54-29.54Q335.28-30.28 336.40-30.28L336.40-30.28Q337.52-30.28 338.26-29.58Q339.00-28.88 339.00-27.84L339.00-27.84Q339.00-26.76 338.26-26.02Q337.52-25.28 336.40-25.28L336.40-25.28Z M357.56-4L358.76-1.24Q357.92-0.52 356.68-0.14Q355.44 0.24 354.12 0.24L354.12 0.24Q350.92 0.24 349.16-1.48Q347.40-3.20 347.40-6.40L347.40-6.40L347.40-18.04L343.80-18.04L343.80-21.20L347.40-21.20L347.40-25.84L351.24-25.84L351.24-21.20L357.32-21.20L357.32-18.04L351.24-18.04L351.24-6.56Q351.24-4.84 352.10-3.92Q352.96-3 354.56-3L354.56-3Q356.32-3 357.56-4L357.56-4Z M383.04-10.48Q383.04-10.04 382.96-9.32L382.96-9.32L365.76-9.32Q366.12-6.52 368.22-4.82Q370.32-3.12 373.44-3.12L373.44-3.12Q377.24-3.12 379.56-5.68L379.56-5.68L381.68-3.20Q380.24-1.52 378.10-0.64Q375.96 0.24 373.32 0.24L373.32 0.24Q369.96 0.24 367.36-1.14Q364.76-2.52 363.34-5Q361.92-7.48 361.92-10.60L361.92-10.60Q361.92-13.68 363.30-16.16Q364.68-18.64 367.10-20.02Q369.52-21.40 372.56-21.40L372.56-21.40Q375.60-21.40 377.98-20.02Q380.36-18.64 381.70-16.16Q383.04-13.68 383.04-10.48L383.04-10.48ZM372.56-18.16Q369.80-18.16 367.94-16.48Q366.08-14.80 365.76-12.08L365.76-12.08L379.36-12.08Q379.04-14.76 377.18-16.46Q375.32-18.16 372.56-18.16L372.56-18.16Z M389.76-8.84L389.04-28L393.56-28L392.80-8.84L389.76-8.84ZM391.32 0.24Q390.20 0.24 389.44-0.50Q388.68-1.24 388.68-2.32L388.68-2.32Q388.68-3.40 389.44-4.14Q390.20-4.88 391.32-4.88L391.32-4.88Q392.44-4.88 393.16-4.14Q393.88-3.40 393.88-2.32L393.88-2.32Q393.88-1.24 393.14-0.50Q392.40 0.24 391.32 0.24L391.32 0.24Z"/></g>
</svg>
</g><g opacity="1" transform="rotate(0 362.5529 349.7555)">
<svg width="391.2069" height="100" x="362.5529" y="349.7555" version="1.1" preserveAspectRatio="none" viewBox="2.12 -27.72 110.32 28.2">
  <g transform="matrix(1 0 0 1 0 0)" class="companyName"><path id="id-D6z1nYkh6" d="M2.12 0L2.12-1.08Q3.64-1.08 4.24-1.26Q4.84-1.44 5-1.90Q5.16-2.36 5.16-3.56L5.16-3.56L5.16-22.84Q5.16-24.04 5-24.50Q4.84-24.96 4.24-25.14Q3.64-25.32 2.12-25.32L2.12-25.32L2.12-26.40L20.32-26.40L20.32-20.32L19.24-20.32Q18.96-22.40 18.46-23.40Q17.96-24.40 16.82-24.78Q15.68-25.16 13.32-25.16L13.32-25.16L9.56-25.16Q8.60-25.16 8.38-24.92Q8.16-24.68 8.16-23.68L8.16-23.68L8.16-13.84L13.08-13.84Q14.68-13.84 15.40-14.16Q16.12-14.48 16.38-15.12Q16.64-15.76 16.84-17.20L16.84-17.20L17.76-17.20L17.76-9.04L16.84-9.04Q16.64-10.48 16.38-11.12Q16.12-11.76 15.40-12.08Q14.68-12.40 13.08-12.40L13.08-12.40L8.16-12.40L8.16-3.56Q8.16-2.36 8.34-1.90Q8.52-1.44 9.26-1.26Q10-1.08 11.80-1.08L11.80-1.08L11.80 0L2.12 0Z M30.36 0.48Q26.20 0.48 24.12-2.06Q22.04-4.60 22.04-9.36L22.04-9.36Q22.04-14.08 24.14-16.62Q26.24-19.16 30.36-19.16L30.36-19.16Q34.52-19.16 36.62-16.62Q38.72-14.08 38.72-9.36L38.72-9.36Q38.72-4.60 36.62-2.06Q34.52 0.48 30.36 0.48L30.36 0.48ZM30.36-0.60Q33.04-0.60 34.36-2.88Q35.68-5.16 35.68-9.36L35.68-9.36Q35.68-13.52 34.36-15.80Q33.04-18.08 30.36-18.08L30.36-18.08Q27.72-18.08 26.38-15.80Q25.04-13.52 25.04-9.36L25.04-9.36Q25.04-5.16 26.38-2.88Q27.72-0.60 30.36-0.60L30.36-0.60Z M51 0.48Q46.84 0.48 44.76-2.06Q42.68-4.60 42.68-9.36L42.68-9.36Q42.68-14.08 44.78-16.62Q46.88-19.16 51-19.16L51-19.16Q55.16-19.16 57.26-16.62Q59.36-14.08 59.36-9.36L59.36-9.36Q59.36-4.60 57.26-2.06Q55.16 0.48 51 0.48L51 0.48ZM51-0.60Q53.68-0.60 55-2.88Q56.32-5.16 56.32-9.36L56.32-9.36Q56.32-13.52 55-15.80Q53.68-18.08 51-18.08L51-18.08Q48.36-18.08 47.02-15.80Q45.68-13.52 45.68-9.36L45.68-9.36Q45.68-5.16 47.02-2.88Q48.36-0.60 51-0.60L51-0.60Z M80.36-1.08L81.76-1.08L81.76 0L76.88 0L76.60-1.92Q74 0.48 70.56 0.48L70.56 0.48Q67 0.48 65.16-1.92Q63.32-4.32 63.32-9.04L63.32-9.04Q63.32-14.24 65.46-16.70Q67.60-19.16 71.24-19.16L71.24-19.16Q74.20-19.16 76.40-17.28L76.40-17.28L76.48-17.28L76.48-24.04Q76.48-25.12 76.24-25.46Q76-25.80 75.24-25.80L75.24-25.80L73.68-25.80L73.68-26.88L78.04-27.72L79.12-27.72L79.12-2.84Q79.12-1.76 79.36-1.42Q79.60-1.08 80.36-1.08L80.36-1.08ZM71.28-0.60Q73.92-0.60 76.48-3.24L76.48-3.24L76.48-15.76Q74.36-18.12 71.64-18.12L71.64-18.12Q69.04-18.12 67.70-16.02Q66.36-13.92 66.36-9.28L66.36-9.28Q66.36-5.12 67.52-2.86Q68.68-0.60 71.28-0.60L71.28-0.60Z M88.28-22.96Q87.44-22.96 86.88-23.52Q86.32-24.08 86.32-24.88L86.32-24.88Q86.32-25.76 86.86-26.32Q87.40-26.88 88.28-26.88L88.28-26.88Q89.16-26.88 89.70-26.32Q90.24-25.76 90.24-24.88L90.24-24.88Q90.20-24.04 89.66-23.50Q89.12-22.96 88.28-22.96L88.28-22.96ZM84.20 0L84.20-1.08Q85.64-1.08 86.18-1.22Q86.72-1.36 86.88-1.78Q87.04-2.20 87.04-3.32L87.04-3.32L87.04-15.44Q87.04-16.44 86.80-16.78Q86.56-17.12 85.84-17.12L85.84-17.12L84.36-17.12L84.36-18.20L88.60-18.92L89.68-18.92L89.68-3.32Q89.68-2.24 89.84-1.80Q90-1.36 90.56-1.22Q91.12-1.08 92.52-1.08L92.52-1.08L92.52 0L84.20 0Z M112.44-9.20L99.32-9.20Q99.32-0.60 105.32-0.60L105.32-0.60Q107.92-0.60 109.34-1.98Q110.76-3.36 111.28-5.24L111.28-5.24L112.28-4.92Q111.60-2.48 109.84-1Q108.08 0.48 104.68 0.48L104.68 0.48Q100.40 0.48 98.34-2.04Q96.28-4.56 96.28-9.08L96.28-9.08Q96.28-13.76 98.42-16.46Q100.56-19.16 104.76-19.16L104.76-19.16Q109.36-19.16 110.90-16.32Q112.44-13.48 112.44-9.48L112.44-9.48L112.44-9.20ZM104.72-18.08Q99.68-18.08 99.36-10.28L99.36-10.28L109.40-10.28Q109.40-14.24 108.30-16.16Q107.20-18.08 104.72-18.08L104.72-18.08Z"/></g>
</svg>
</g><g opacity="1" transform="rotate(0 341.5529 349.7555)">
<svg width="3" height="148" x="341.5529" y="349.7555" version="1.1" preserveAspectRatio="none" viewBox="0 0 3 148">
  <defs><rect x="0" y="0" width="3" height="148" rx="0px" ry="0px" id="id-tBXipXk0b1668887459986"></rect></defs><use class="companyName shapeStroke-str" style="stroke-width:0;" xlink:href="#id-tBXipXk0b1668887459986"></use>
</svg>
</g></svg></svg>